<svg xmlns="http://www.w3.org/2000/svg" width="249.45" height="35" viewBox="0 0 249.45 35"><rect class="svg__rect" x="0" y="0" width="115.31" height="35" fill="#31C4F3"/><rect class="svg__rect" x="113.31" y="0" width="136.14" height="35" fill="#389AD5"/><path class="svg__text" d="M15.69 22L14.22 22L14.22 13.47L16.14 13.47L18.60 20.01L21.06 13.47L22.97 13.47L22.97 22L21.49 22L21.49 19.19L21.64 15.43L19.12 22L18.06 22L15.55 15.43L15.69 19.19L15.69 22ZM28.49 22L26.95 22L30.17 13.47L31.50 13.47L34.73 22L33.18 22L32.49 20.01L29.18 20.01L28.49 22ZM30.83 15.28L29.60 18.82L32.07 18.82L30.83 15.28ZM41.14 22L38.69 22L38.69 13.47L41.21 13.47Q42.34 13.47 43.21 13.97Q44.09 14.48 44.57 15.40Q45.05 16.33 45.05 17.52L45.05 17.52L45.05 17.95Q45.05 19.16 44.57 20.08Q44.08 21.00 43.19 21.50Q42.30 22 41.14 22L41.14 22ZM40.17 14.66L40.17 20.82L41.14 20.82Q42.30 20.82 42.93 20.09Q43.55 19.36 43.56 17.99L43.56 17.99L43.56 17.52Q43.56 16.13 42.96 15.40Q42.35 14.66 41.21 14.66L41.21 14.66L40.17 14.66ZM55.09 22L49.51 22L49.51 13.47L55.05 13.47L55.05 14.66L51.00 14.66L51.00 17.02L54.50 17.02L54.50 18.19L51.00 18.19L51.00 20.82L55.09 20.82L55.09 22ZM66.65 22L64.68 13.47L66.15 13.47L67.47 19.88L69.10 13.47L70.34 13.47L71.96 19.89L73.27 13.47L74.74 13.47L72.77 22L71.35 22L69.73 15.77L68.07 22L66.65 22ZM80.38 22L78.90 22L78.90 13.47L80.38 13.47L80.38 22ZM86.87 14.66L84.23 14.66L84.23 13.47L91.00 13.47L91.00 14.66L88.34 14.66L88.34 22L86.87 22L86.87 14.66ZM96.24 22L94.75 22L94.75 13.47L96.24 13.47L96.24 17.02L100.05 17.02L100.05 13.47L101.53 13.47L101.53 22L100.05 22L100.05 18.21L96.24 18.21L96.24 22Z" fill="#FFFFFF"/><path class="svg__text" d="M129.29 15.48L126.71 15.48L126.71 13.60L134.23 13.60L134.23 15.48L131.66 15.48L131.66 22L129.29 22L129.29 15.48ZM140.73 18.95L137.52 13.60L140.03 13.60L142.02 16.94L144.02 13.60L146.32 13.60L143.10 18.99L143.10 22L140.73 22L140.73 18.95ZM152.78 22L150.40 22L150.40 13.60L154.25 13.60Q155.38 13.60 156.22 13.98Q157.06 14.35 157.52 15.06Q157.98 15.76 157.98 16.71L157.98 16.71Q157.98 17.66 157.52 18.35Q157.06 19.05 156.22 19.42Q155.38 19.80 154.25 19.80L154.25 19.80L152.78 19.80L152.78 22ZM152.78 15.47L152.78 17.93L154.10 17.93Q154.83 17.93 155.20 17.61Q155.58 17.29 155.58 16.71L155.58 16.71Q155.58 16.12 155.20 15.80Q154.83 15.47 154.10 15.47L154.10 15.47L152.78 15.47ZM169.47 22L162.73 22L162.73 13.60L169.32 13.60L169.32 15.44L165.09 15.44L165.09 16.85L168.82 16.85L168.82 18.63L165.09 18.63L165.09 20.17L169.47 20.17L169.47 22ZM173.69 21.24L173.69 21.24L174.47 19.49Q175.03 19.86 175.78 20.09Q176.52 20.32 177.24 20.32L177.24 20.32Q178.61 20.32 178.62 19.64L178.62 19.64Q178.62 19.28 178.23 19.11Q177.84 18.93 176.97 18.74L176.97 18.74Q176.02 18.53 175.38 18.30Q174.75 18.06 174.29 17.55Q173.84 17.03 173.84 16.16L173.84 16.16Q173.84 15.39 174.26 14.77Q174.68 14.15 175.51 13.79Q176.35 13.43 177.55 13.43L177.55 13.43Q178.38 13.43 179.19 13.62Q179.99 13.80 180.61 14.17L180.61 14.17L179.87 15.93Q178.67 15.28 177.54 15.28L177.54 15.28Q176.83 15.28 176.51 15.49Q176.19 15.70 176.19 16.04L176.19 16.04Q176.19 16.37 176.57 16.54Q176.96 16.71 177.81 16.89L177.81 16.89Q178.77 17.10 179.40 17.33Q180.03 17.56 180.49 18.07Q180.95 18.58 180.95 19.46L180.95 19.46Q180.95 20.21 180.53 20.83Q180.12 21.44 179.27 21.80Q178.43 22.17 177.23 22.17L177.23 22.17Q176.21 22.17 175.25 21.92Q174.29 21.67 173.69 21.24ZM185.10 17.80L185.10 17.80Q185.10 16.54 185.70 15.54Q186.30 14.55 187.35 13.99Q188.40 13.43 189.72 13.43L189.72 13.43Q190.87 13.43 191.80 13.84Q192.72 14.25 193.33 15.02L193.33 15.02L191.82 16.39Q191.01 15.40 189.84 15.40L189.84 15.40Q189.16 15.40 188.62 15.70Q188.09 16 187.79 16.54Q187.50 17.09 187.50 17.80L187.50 17.80Q187.50 18.51 187.79 19.05Q188.09 19.60 188.62 19.90Q189.16 20.20 189.84 20.20L189.84 20.20Q191.01 20.20 191.82 19.22L191.82 19.22L193.33 20.58Q192.72 21.35 191.80 21.76Q190.87 22.17 189.72 22.17L189.72 22.17Q188.40 22.17 187.35 21.61Q186.30 21.05 185.70 20.05Q185.10 19.06 185.10 17.80ZM200.25 22L197.87 22L197.87 13.60L201.71 13.60Q202.86 13.60 203.69 13.98Q204.53 14.35 204.99 15.06Q205.45 15.76 205.45 16.71L205.45 16.71Q205.45 17.62 205.02 18.30Q204.59 18.98 203.80 19.36L203.80 19.36L205.61 22L203.07 22L201.54 19.77L200.25 19.77L200.25 22ZM200.25 15.47L200.25 17.93L201.57 17.93Q202.30 17.93 202.67 17.61Q203.04 17.29 203.04 16.71L203.04 16.71Q203.04 16.12 202.67 15.79Q202.30 15.47 201.57 15.47L201.57 15.47L200.25 15.47ZM212.61 22L210.23 22L210.23 13.60L212.61 13.60L212.61 22ZM220.16 22L217.78 22L217.78 13.60L221.63 13.60Q222.77 13.60 223.61 13.98Q224.45 14.35 224.90 15.06Q225.36 15.76 225.36 16.71L225.36 16.71Q225.36 17.66 224.90 18.35Q224.45 19.05 223.61 19.42Q222.77 19.80 221.63 19.80L221.63 19.80L220.16 19.80L220.16 22ZM220.16 15.47L220.16 17.93L221.48 17.93Q222.21 17.93 222.59 17.61Q222.96 17.29 222.96 16.71L222.96 16.71Q222.96 16.12 222.59 15.80Q222.21 15.47 221.48 15.47L221.48 15.47L220.16 15.47ZM231.91 15.48L229.32 15.48L229.32 13.60L236.85 13.60L236.85 15.48L234.28 15.48L234.28 22L231.91 22L231.91 15.48Z" fill="#FFFFFF" x="126.31"/></svg>